<svg xmlns="http://www.w3.org/2000/svg" width="561.333" height="561.333" preserveAspectRatio="xMidYMid meet" version="1.0" viewBox="0 0 421 421"><metadata>Created by potrace 1.14, written by Peter Selinger 2001-2017</metadata><g fill="#000" stroke="none"><path d="M1950 3734 c-8 -1 -48 -8 -89 -14 -93 -15 -295 -80 -359 -115 -27 -14 -66 -43 -88 -63 -42 -39 -90 -102 -78 -102 3 0 2 -6 -4 -12 -5 -7 -12 -27 -15 -45 -7 -43 -14 -52 -37 -46 -40 11 -92 -8 -136 -49 -24 -22 -44 -47 -44 -54 0 -8 -4 -14 -10 -14 -5 0 -9 -3 -8 -7 1 -5 -3 -17 -9 -28 -6 -11 -12 -24 -13 -30 -1 -5 -7 -21 -12 -35 -28 -74 -30 -282 -4 -380 38 -140 44 -169 51 -250 13 -165 14 -171 61 -319 3 -8 -1 -11 -9 -8 -40 15 -67 -47 -63 -143 4 -75 30 -209 48 -243 12 -24 2 -52 -15 -40 -10 7 -80 9 -151 4 -28 -2 -67 -49 -70 -83 -2 -18 1 -36 7 -39 5 -4 5 -15 -2 -28 -7 -11 -8 -21 -4 -21 7 0 13 -102 17 -302 0 -38 5 -68 9 -68 4 0 3 -9 -3 -19 -7 -13 -7 -22 0 -26 7 -4 7 -12 0 -25 -6 -10 -6 -21 -2 -24 4 -3 9 -42 11 -88 1 -46 4 -98 5 -116 3 -24 -2 -39 -17 -53 -11 -10 -23 -19 -27 -19 -3 0 -13 -15 -23 -32 -22 -42 -48 -118 -40 -118 3 0 0 -7 -7 -15 -7 -8 -9 -15 -5 -15 4 0 2 -7 -5 -15 -7 -8 -10 -15 -6 -15 3 0 1 -12 -5 -27 -10 -27 -13 -38 -23 -83 -3 -11 -7 -24 -10 -28 -3 -5 -7 -19 -9 -33 -3 -13 -12 -53 -22 -88 -9 -35 -15 -64 -13 -66 15 -14 988 -23 988 -10 0 7 3 7 8 0 4 -6 96 -10 240 -10 148 0 232 4 232 10 0 7 3 7 8 0 4 -6 149 -10 397 -10 248 0 393 4 397 10 5 7 8 7 8 0 0 -6 32 -9 82 -6 46 2 147 5 226 8 l142 5 -6 26 c-23 101 -86 345 -94 367 -6 15 -26 42 -44 60 l-34 33 3 93 c4 100 14 279 21 369 2 30 4 61 4 68 0 18 0 29 2 125 2 52 6 87 13 87 5 0 3 5 -5 10 -8 5 -10 10 -4 10 14 0 13 32 -1 42 -7 5 -6 8 1 8 20 0 7 100 -15 120 -12 9 -18 19 -16 22 7 6 -6 8 -104 11 -89 2 -101 9 -81 47 6 12 14 31 16 43 3 12 7 31 9 42 13 56 16 74 21 126 4 31 4 73 0 93 -8 42 -41 77 -64 69 -12 -5 -14 -2 -8 13 7 17 26 76 32 97 1 4 2 8 4 10 8 10 19 96 25 199 3 54 10 109 15 123 5 14 7 25 4 25 -2 0 2 13 10 29 8 15 17 39 20 52 3 13 8 35 11 49 11 46 12 155 2 219 -9 56 -8 65 7 73 33 18 83 90 92 131 1 4 2 8 4 10 10 12 16 125 7 133 -10 10 -27 -6 -27 -26 0 -10 -13 -32 -29 -49 -53 -57 -141 -32 -221 61 -102 119 -254 260 -304 283 -11 5 -23 12 -26 15 -19 23 -203 93 -277 106 -13 2 -35 7 -50 10 -28 6 -385 13 -413 8z" transform="translate(0.000000,421.000000) scale(0.100000,-0.100000)"/></g></svg>